 http://img703.imageshack.us/img703/5572/horriblebosses2011.jpg

Country.......: USA
Genre.........: Comedy, Crime
Date release..: 08.07.2011 [World]
Director......: Seth Gordon
Writers.......: Michael Markowitz, John Francis Daley
Duration......: 94 min.
More..........: http://www.imdb.com/title/tt1499658
Trailer.......: http://www.imdb.com/video/imdb/vi8756249
Trailer.......:

Pilot :
Three friends conspire to murder their awful bosses when they realize they are standing in the way of their happiness.

Cats :
P.J. Byrne   	 ...  	Kenny Sommerfeld
Kevin Spacey 	... 	Dave Harken
Colin Farrell 	... 	Bobby Pellitt
Steve Wiebe 	... 	Thomas, Head of Security
Jennifer Aniston 	... 	Dr. Julia Harris, D.D.S.
Jason Bateman 	... 	Nick Hendricks
Charlie Day 	... 	Dale Arbus
Lindsay Sloane 	... 	Stacy
Michael Albala 	... 	Mr. Anderton
Jason Sudeikis 	... 	Kurt Buckman
Reginald Ballard 	... 	Kurts Co Worker
George Back 	... 	Kurts Co Worker
Barry Livingston 	... 	Kurts Co Worker
Meghan Markle 	... 	Jamie
Donald Sutherland 	... 	Jack Pellit 

Data Technical :
!!! SAMPLE !!!
Audio.....: English
Subtitles.: None
Format                           : AVI
Format/Info                      : Audio Video Interleave
File size                        : 1.42 GiB
Duration                         : 1h 33mn
Overall bit rate                 : 2 172 Kbps
Writing library                  : MPlayer
Video
ID                               : 0
Format                           : MPEG-4 Visual
Format profile                   : Advanced Simple@L5
Format settings, BVOP            : Yes
Format settings, QPel            : No
Format settings, GMC             : No warppoints
Format settings, Matrix          : Default (H.263)
Codec ID                         : XVID
Codec ID/Hint                    : XviD
Duration                         : 1h 33mn
Bit rate                         : 1 904 Kbps
Width                            : 1 280 pixels
Height                           : 720 pixels
Display aspect ratio             : 16:9
Frame rate                       : 25.000 fps
Color space                      : YUV
Chroma subsampling               : 4:2:0
Bit depth                        : 8 bits
Scan type                        : Progressive
Bits/(Pixel*Frame)               : 0.083
Stream size                      : 1.24 GiB (88%)
Writing library                  : XviD 1.1.2 (UTC 2006-11-01)
Audio
ID                               : 1
Format                           : MPEG Audio
Format version                   : Version 1
Format profile                   : Layer 3
Mode                             : Joint stereo
Mode extension                   : MS Stereo
Codec ID                         : 55
Codec ID/Hint                    : MP3
Duration                         : 1h 33mn
Bit rate mode                    : Constant
Bit rate                         : 256 Kbps
Channel(s)                       : 2 channels
Sampling rate                    : 44.1 KHz
Video delay                      : 40ms
Stream size                      : 171 MiB (12%)
Alignment                        : Aligned on interleaves
Interleave, duration             : 26 ms (0.65 video frame)
Interleave, preload duration     : 809 ms
Writing library                  : LAME3.97

Screen : 
http://img809.imageshack.us/img809/7541/horriblebosses2011s1.jpg 
http://img202.imageshack.us/img202/295/horriblebosses2011s2.jpg 
http://img40.imageshack.us/img40/5186/horriblebosses2011s3.jpg 
http://img220.imageshack.us/img220/7130/horriblebosses2011s4.jpg 
http://img839.imageshack.us/img839/5255/horriblebosses2011s5.jpg